# xmcd
#
# Track frame offsets:
#	150
#	16585
#	50097
#	63870
#	102839
#	136022
#	159373
#	188495
#	225682
#	254446
#
# Disc length: 3920 seconds
#
# Revision: 1
# Processed by: cddbd v1.5.2PL0 Copyright (c) Steve Scherf et al.
# Submitted via: audiograbber 1.83.01
#
DISCID=720f4e0a
DTITLE=Brad Wilson - Lightning Guitar Blues Live
DYEAR=2009
DGENRE=Blues
TTITLE0=All Kinds of a Fool
TTITLE1=Pride and Joy
TTITLE2=Bo Diddley
TTITLE3=Stormy Monday
TTITLE4=Born Under a Bad Sign
TTITLE5=Peepin' and Hidin'
TTITLE6=Key to the Highway
TTITLE7=Standin' Around and Cryin'
TTITLE8=Sweet Home Chicago
TTITLE9=Make Love to You
EXTD=
EXTT0=
EXTT1=
EXTT2=
EXTT3=
EXTT4=
EXTT5=
EXTT6=
EXTT7=
EXTT8=
EXTT9=
PLAYORDER=
